<svg width="108" height="108" viewBox="0 0 108 108" fill="none" xmlns="http://www.w3.org/2000/svg">
  <path
    d="M99.8996 79.3505L63.0067 15.2803C62.0848 13.7106 60.7686 12.4091 59.1887 11.5048C57.6088 10.6005 55.82 10.1247 53.9996 10.1247C52.1792 10.1247 50.3904 10.6005 48.8105 11.5048C47.2307 12.4091 45.9145 13.7106 44.9926 15.2803L8.09964 79.3505C7.21259 80.8687 6.74512 82.5955 6.74512 84.3539C6.74512 86.1123 7.21259 87.8391 8.09964 89.3573C9.00976 90.9365 10.3236 92.2451 11.9065 93.1489C13.4893 94.0526 15.2841 94.5189 17.1067 94.5H90.8926C92.7137 94.5174 94.5068 94.0504 96.088 93.1467C97.6692 92.2431 98.9818 90.9353 99.8912 89.3573C100.78 87.8398 101.248 86.1134 101.25 84.3551C101.251 82.5967 100.785 80.8695 99.8996 79.3505ZM50.6246 43.875C50.6246 42.9799 50.9802 42.1215 51.6132 41.4885C52.2461 40.8556 53.1045 40.5 53.9996 40.5C54.8947 40.5 55.7532 40.8556 56.3861 41.4885C57.0191 42.1215 57.3746 42.9799 57.3746 43.875V60.75C57.3746 61.6451 57.0191 62.5036 56.3861 63.1365C55.7532 63.7694 54.8947 64.125 53.9996 64.125C53.1045 64.125 52.2461 63.7694 51.6132 63.1365C50.9802 62.5036 50.6246 61.6451 50.6246 60.75V43.875ZM53.9996 81C52.9984 81 52.0196 80.7031 51.1871 80.1468C50.3545 79.5905 49.7057 78.7999 49.3225 77.8748C48.9393 76.9498 48.8391 75.9319 49.0344 74.9499C49.2298 73.9678 49.7119 73.0658 50.4199 72.3578C51.1279 71.6498 52.03 71.1676 53.012 70.9723C53.994 70.7769 55.0119 70.8772 55.937 71.2604C56.862 71.6435 57.6527 72.2924 58.209 73.1249C58.7652 73.9575 59.0621 74.9362 59.0621 75.9375C59.0621 77.2802 58.5288 78.5678 57.5794 79.5172C56.63 80.4666 55.3423 81 53.9996 81Z"
    fill="#ECC94B" />
</svg>
